<?xml version="1.0" standalone="no"?>
<!DOCTYPE svg PUBLIC "-//W3C//DTD SVG 20010904//EN"
 "http://www.w3.org/TR/2001/REC-SVG-20010904/DTD/svg10.dtd">
<svg version="1.0" xmlns="http://www.w3.org/2000/svg"
 width="700.000000pt" height="700.000000pt" viewBox="0 0 700.000000 700.000000"
 preserveAspectRatio="xMidYMid meet">
<metadata>
Created by potrace 1.11, written by Peter Selinger 2001-2013
</metadata>
<g transform="translate(0.000000,700.000000) scale(0.100000,-0.100000)"
fill="#000000" stroke="none">
<path d="M3350 6982 c-43 -24 -68 -65 -73 -120 -4 -50 -8 -55 -50 -58 -41 -2
-160 -14 -184 -18 -10 -2 -38 -7 -63 -11 -108 -16 -126 -20 -210 -40 -75 -18
-80 -21 -103 -55 -36 -53 -3 -141 58 -152 14 -3 76 5 138 17 61 13 130 25 152
28 177 24 282 34 361 36 39 1 75 36 89 85 l10 35 142 -107 c78 -59 142 -110
143 -113 0 -4 -57 -36 -127 -72 -71 -36 -141 -72 -157 -81 -33 -17 -46 -13
-46 13 0 24 -35 59 -66 67 -40 10 -216 -6 -355 -31 -9 -2 -34 -6 -55 -9 -76
-12 -251 -57 -359 -92 -341 -111 -664 -285 -945 -509 -107 -85 -320 -291 -395
-383 l-50 -61 -102 0 c-57 -1 -103 2 -103 5 0 17 173 217 285 329 301 301 611
514 980 672 90 39 121 63 130 103 8 36 -17 95 -46 111 -36 19 -79 13 -165 -24
-72 -31 -304 -147 -343 -172 -9 -6 -38 -24 -66 -40 -120 -71 -331 -224 -458
-333 -163 -141 -438 -447 -542 -604 -26 -41 -44 -58 -59 -58 -36 0 -165 -39
-219 -67 -174 -87 -304 -237 -370 -426 l-32 -92 -3 -343 c-2 -342 -3 -343 -26
-381 -98 -155 -67 -370 71 -491 l36 -32 2 -102 c7 -254 28 -410 102 -751 3
-15 -7 -26 -45 -47 -94 -52 -181 -168 -212 -282 -24 -86 -27 -763 -3 -813 25
-54 37 -55 461 -55 l389 0 40 -52 c120 -153 307 -343 486 -492 140 -117 397
-288 458 -304 140 -38 270 18 337 145 22 42 27 63 27 130 0 57 -5 89 -17 112
l-18 31 106 4 c105 3 106 3 135 36 43 48 36 114 -17 149 -22 14 -51 18 -138
19 -61 1 -114 3 -118 3 -10 1 -4 776 6 816 21 87 112 193 205 237 56 27 80 32
163 36 l98 5 251 -189 c139 -104 265 -194 282 -200 17 -5 32 -17 33 -25 2 -8
11 -42 20 -76 l16 -61 -53 -269 c-28 -147 -55 -270 -60 -273 -4 -3 -72 -4
-151 -4 -167 2 -201 -7 -223 -59 -23 -55 -5 -106 45 -132 25 -13 130 -15 772
-15 409 1 842 0 963 0 l220 -1 -65 -31 c-190 -90 -489 -188 -650 -212 -19 -3
-57 -10 -85 -15 -27 -5 -79 -12 -115 -16 -36 -4 -83 -8 -105 -11 -42 -4 -186
-7 -268 -5 -44 1 -47 3 -43 25 6 32 -27 101 -58 121 -29 19 -80 25 -116 14
-150 -46 -605 -220 -626 -240 -29 -27 -45 -90 -33 -133 6 -23 74 -97 244 -267
129 -129 248 -239 263 -246 80 -35 160 8 187 102 l15 51 198 0 c247 -1 390 11
606 49 403 72 794 220 1151 435 277 168 610 456 816 705 41 50 78 93 83 96 4
4 183 7 397 7 355 0 391 2 419 18 16 10 34 32 39 49 12 38 11 697 -1 768 -20
115 -107 243 -210 308 -29 18 -55 34 -57 36 -2 1 2 24 9 50 14 58 15 62 39
193 17 92 28 164 37 235 7 60 17 222 19 302 l2 93 36 31 c133 113 165 327 73
484 l-28 47 -2 327 c-2 364 -7 402 -73 536 -100 203 -274 343 -492 394 -45 10
-83 20 -85 22 -1 2 -18 26 -36 53 -109 162 -359 439 -535 596 -75 66 -283 222
-380 285 -161 104 -370 214 -450 237 -130 39 -269 -22 -333 -146 -21 -42 -26
-65 -26 -126 -1 -142 52 -208 242 -304 211 -108 403 -237 578 -391 82 -72 206
-197 200 -202 -2 -2 -25 -6 -52 -9 -87 -9 -193 -47 -236 -86 -8 -7 -30 -28
-49 -45 -25 -24 -56 -38 -113 -53 -79 -20 -162 -61 -216 -107 -17 -14 -30 -23
-31 -21 0 1 -2 34 -4 71 -7 98 -39 220 -86 316 -135 284 -396 476 -704 519
-27 4 -133 7 -235 7 -157 0 -192 -3 -230 -18 -25 -10 -53 -26 -62 -34 -16 -15
-24 -13 -85 18 l-67 34 -216 -1 c-185 -1 -227 -4 -304 -22 -294 -73 -545 -295
-645 -572 -24 -67 -51 -188 -51 -229 0 -41 -13 -46 -57 -18 -50 31 -115 56
-176 67 -32 7 -55 18 -68 33 -50 65 -186 131 -288 141 -30 3 -55 7 -57 9 -5 4
116 128 191 195 233 209 565 408 860 518 185 68 430 131 585 149 30 4 65 8 78
9 14 2 22 -2 22 -12 0 -36 41 -99 75 -115 68 -32 61 -35 440 163 61 31 143 74
182 95 82 42 113 81 113 139 0 73 2 71 -395 371 -44 33 -89 68 -100 78 -57 53
-131 68 -185 39z m1538 -696 c312 -157 561 -336 812 -586 97 -96 208 -221 264
-295 l38 -50 -102 -3 -103 -3 -26 32 c-244 300 -606 585 -976 767 -90 44 -115
81 -88 134 30 60 67 61 181 4z m-1559 -564 c16 -11 29 -35 35 -58 17 -82 48
-116 101 -116 63 0 97 32 109 104 6 37 23 66 47 78 24 13 265 17 363 6 322
-36 580 -292 622 -616 4 -34 8 -537 5 -608 -1 -10 -79 -12 -388 -10 l-388 3
-59 29 c-119 58 -188 162 -202 305 -8 81 -55 120 -127 107 -49 -9 -73 -46 -81
-123 -16 -148 -115 -272 -251 -311 -37 -11 -740 -20 -750 -10 -3 2 -6 49 -9
103 -2 55 -10 121 -16 147 -12 47 -9 375 4 428 41 174 143 327 280 424 122 87
225 124 371 133 44 3 81 6 82 7 1 0 52 0 114 -1 93 -2 117 -5 138 -21z m-1784
-586 c21 -4 53 -15 69 -23 31 -16 96 -80 96 -94 0 -16 55 -37 121 -47 118 -18
213 -79 266 -170 26 -44 27 -51 28 -211 2 -181 2 -180 -61 -246 -22 -23 -50
-62 -64 -88 -25 -47 -25 -47 -70 -43 -65 7 -91 19 -149 70 -62 55 -110 62
-158 22 -38 -32 -125 -76 -165 -84 -18 -3 -287 -6 -598 -7 l-564 0 0 220 c0
121 3 240 6 265 25 185 176 361 360 419 20 7 65 15 100 19 83 9 732 7 783 -2z
m4745 -6 c174 -40 324 -172 380 -334 10 -31 22 -76 26 -99 5 -34 8 -280 5
-448 l-1 -36 -577 1 c-574 2 -578 2 -635 25 -105 41 -194 142 -223 251 -17 63
-20 387 -5 456 21 93 90 164 184 188 63 16 774 13 846 -4z m-1243 -376 l0
-187 -35 -51 c-19 -28 -52 -84 -72 -124 l-37 -73 -30 34 -29 33 2 140 c2 182
18 243 87 321 25 29 102 93 112 93 1 0 2 -84 2 -186z m-1516 -294 c74 -73 163
-124 260 -149 65 -16 118 -19 438 -20 345 -1 366 -3 412 -22 55 -24 111 -80
135 -136 38 -91 8 -220 -68 -289 -51 -45 -89 -61 -163 -68 -65 -5 -106 -29
-117 -67 -4 -13 -19 -67 -33 -119 -113 -415 -490 -701 -925 -701 -349 1 -668
186 -836 488 -46 82 -71 145 -100 257 -29 115 -47 134 -134 142 -112 10 -189
64 -233 163 -28 63 -20 162 17 226 31 53 92 100 147 115 21 6 201 12 416 13
377 3 378 3 444 28 97 37 157 76 219 140 30 31 56 58 58 58 1 1 29 -26 63 -59z
m1621 -207 c52 -77 145 -155 231 -193 111 -49 128 -50 707 -51 503 0 549 -2
586 -18 109 -49 141 -180 68 -276 -26 -35 -87 -65 -130 -65 -37 0 -91 -26
-104 -50 -6 -11 -20 -56 -31 -98 -11 -42 -24 -81 -28 -87 -4 -5 -14 -26 -21
-45 -35 -91 -144 -218 -246 -287 -77 -52 -105 -66 -184 -92 -396 -130 -823
102 -930 505 -35 133 -45 143 -143 155 -31 4 -64 13 -73 20 -13 11 -12 15 10
36 62 57 118 169 131 262 4 25 17 58 31 74 13 16 24 35 24 43 0 25 61 204 69
204 5 0 20 -17 33 -37z m-3434 -181 c49 -33 77 -43 150 -55 40 -7 73 -16 73
-20 0 -3 7 -34 15 -67 20 -85 57 -153 118 -216 l52 -54 -36 -5 c-72 -11 -110
-26 -125 -49 -8 -12 -24 -58 -35 -101 -85 -333 -369 -551 -715 -549 -244 2
-458 119 -600 328 -50 74 -96 185 -111 269 -2 16 -9 39 -15 49 -13 24 -68 48
-109 48 -35 0 -97 29 -122 57 -22 24 -48 86 -48 115 0 75 41 134 115 169 38
17 78 18 575 19 294 1 550 3 568 5 42 6 172 51 186 65 15 15 34 12 64 -8z
m2964 -527 c38 -37 113 -78 160 -90 23 -6 30 -16 43 -63 21 -71 94 -211 147
-279 54 -71 150 -159 228 -212 48 -32 65 -49 66 -67 1 -35 -11 -46 -101 -94
-44 -24 -85 -47 -91 -51 -6 -5 -53 -11 -105 -13 -52 -3 -117 -12 -145 -20 -60
-19 -156 -79 -202 -128 l-34 -36 -46 15 c-63 19 -104 24 -209 27 -96 3 -73 -6
-308 123 l-70 38 -1 55 c0 53 16 90 38 90 22 0 167 111 239 183 132 130 229
287 284 454 15 43 28 84 30 91 8 22 39 13 77 -23z m-2332 -14 c0 -55 109 -276
190 -386 82 -110 227 -238 347 -305 l42 -23 -2 -61 -2 -60 -57 -32 c-229 -129
-225 -127 -333 -130 -55 -2 -121 -8 -147 -15 l-48 -11 -43 39 c-92 85 -178
119 -326 129 -91 6 -98 8 -197 63 -98 53 -104 58 -104 88 0 29 7 37 68 76 174
114 310 292 376 495 14 42 23 53 44 58 37 9 111 48 147 77 32 27 45 26 45 -2z
m4257 -338 c-6 -63 -21 -176 -33 -248 -4 -25 -14 -74 -51 -242 -11 -49 -160
-19 -157 33 1 16 34 184 49 249 2 11 18 34 35 52 48 51 125 156 139 191 7 17
16 32 19 32 2 0 2 -30 -1 -67z m-6134 -68 c17 -22 48 -58 69 -81 36 -38 41
-51 63 -155 12 -63 26 -126 30 -140 6 -22 1 -29 -29 -47 -36 -21 -52 -25 -97
-23 -23 1 -27 8 -42 69 -9 37 -19 81 -22 97 -3 17 -12 66 -20 110 -18 98 -22
129 -30 225 l-7 75 28 -45 c15 -25 41 -63 57 -85z m722 -371 c72 -2 150 1 174
7 24 5 48 8 53 7 9 -3 -184 -138 -197 -138 -7 0 -186 119 -200 133 -7 6 -2 7
15 2 14 -4 84 -9 155 -11z m4550 0 c72 -2 152 1 179 6 27 6 51 9 52 7 3 -3
-193 -137 -201 -137 -7 0 -186 119 -200 133 -7 6 -2 7 15 2 14 -4 84 -9 155
-11z m-2520 -45 c184 -37 403 -31 568 17 12 4 17 0 17 -15 0 -16 -41 -48 -165
-131 -90 -60 -169 -110 -174 -110 -19 0 -341 220 -341 233 0 20 12 28 29 22 9
-4 39 -11 66 -16z m-2254 -159 c59 -40 87 -65 82 -73 -15 -24 -57 -67 -65 -67
-5 0 -54 34 -110 77 l-101 76 44 23 c24 13 48 23 52 24 4 0 48 -27 98 -60z
m650 39 c22 -11 39 -24 37 -29 -3 -11 -187 -150 -197 -150 -4 0 -25 18 -46 40
-21 22 -35 40 -29 40 5 0 19 7 29 15 38 30 150 104 158 104 4 1 26 -8 48 -20z
m3900 -40 c101 -68 97 -54 36 -123 -21 -24 -19 -25 -143 71 l-86 66 43 23 c24
13 48 23 52 24 4 0 48 -27 98 -61z m650 40 c22 -11 39 -24 37 -29 -3 -10 -188
-150 -198 -150 -3 0 -22 17 -43 38 l-36 37 92 62 c51 34 96 62 100 62 4 1 26
-8 48 -20z m-3003 -170 c75 -51 138 -93 140 -94 7 -6 -133 -145 -142 -142 -21
9 -302 222 -305 232 -2 9 143 94 162 95 4 0 70 -41 145 -91z m833 50 c91 -50
96 -54 71 -68 -11 -6 -26 -17 -34 -23 -15 -15 -236 -180 -257 -193 -10 -6 -33
12 -82 65 l-68 74 137 92 c75 51 142 93 148 93 6 1 44 -17 85 -40z m-3251
-144 c102 -75 195 -142 208 -148 14 -6 26 -26 33 -51 15 -53 14 -74 -6 -171
-10 -44 -19 -91 -21 -105 -3 -14 -12 -61 -20 -106 l-16 -81 -361 1 -361 1 1
295 c1 279 2 298 23 345 27 63 72 110 130 138 49 23 140 36 180 26 14 -3 109
-68 210 -144z m1344 118 c60 -30 60 -31 -3 -99 -118 -126 -152 -236 -155 -498
l-1 -181 -207 -1 c-115 -1 -208 0 -208 1 0 1 -15 80 -34 176 -46 237 -45 225
-32 274 9 36 20 50 66 81 30 21 125 90 212 155 114 86 165 118 190 121 48 4
135 -10 172 -29z m3206 -118 c105 -79 199 -147 209 -150 10 -3 24 -26 32 -53
15 -44 14 -55 -12 -188 -15 -78 -30 -156 -33 -175 -3 -19 -9 -47 -14 -64 l-8
-30 -232 -1 -232 -1 0 162 c0 253 -32 372 -135 499 -25 30 -45 57 -45 60 0 11
72 59 107 72 21 7 68 13 104 14 l67 0 192 -145z m1312 129 c63 -21 122 -74
153 -139 l27 -55 0 -277 c0 -153 0 -288 -1 -299 -1 -21 -1 -21 -361 -21 -198
0 -360 1 -360 2 0 1 -11 58 -25 126 -14 68 -28 135 -30 149 -3 14 -7 36 -10
50 -13 66 -13 84 1 129 9 31 22 52 36 59 13 6 106 74 208 151 l185 139 66 1
c36 1 86 -6 111 -15z m-5354 -135 l29 -31 -15 -59 c-14 -57 -16 -59 -48 -59
-22 0 -34 5 -38 18 -28 96 -28 99 1 130 16 16 31 30 35 31 4 0 20 -13 36 -30z
m4548 0 l31 -30 -15 -60 c-14 -57 -15 -59 -48 -59 -31 0 -34 3 -44 43 -6 23
-13 49 -16 57 -3 13 42 80 56 80 2 0 18 -14 36 -31z m-1266 -7 c135 -46 237
-165 257 -303 5 -30 8 -216 8 -413 l-1 -360 -479 0 c-304 -1 -483 3 -491 9 -7
6 -15 24 -17 40 -3 17 -12 64 -20 105 -9 41 -18 89 -21 105 -3 17 -17 87 -30
156 -26 131 -26 126 5 252 7 25 15 37 28 37 9 0 60 32 112 70 52 39 105 78
118 88 13 9 88 65 165 124 l141 107 90 -1 c51 0 109 -7 135 -16z m-1009 -180
c20 -22 40 -45 44 -52 7 -11 -34 -189 -44 -191 -25 -4 -114 -3 -120 1 -4 3
-18 45 -30 93 l-22 89 53 57 c59 65 62 65 119 3z m-2277 -182 c5 -16 13 -58
22 -105 3 -16 9 -49 15 -73 5 -23 12 -57 14 -75 l6 -33 -86 -1 -86 -1 6 41 c9
52 9 53 31 162 9 50 22 93 28 97 17 11 46 5 50 -12z m4551 -4 c8 -34 55 -275
55 -279 0 -8 -161 -4 -166 4 -3 5 0 35 6 66 7 32 13 69 15 81 3 23 24 117 30
138 1 5 15 10 29 10 19 0 28 -6 31 -20z m-2269 -286 c2 -18 34 -186 40 -215
28 -131 40 -201 38 -204 -2 -2 -67 -5 -144 -5 -162 -1 -149 -14 -121 125 11
52 22 110 25 129 3 19 12 68 21 108 8 40 15 75 15 78 0 3 28 4 62 2 45 -2 62
-7 64 -18z m-2105 -281 c131 -127 272 -242 427 -346 79 -53 145 -99 147 -103
13 -21 11 -61 -5 -88 -22 -35 -67 -49 -102 -31 -55 28 -253 166 -354 246 -97
78 -334 305 -390 374 l-21 26 107 1 108 1 83 -80z m505 -36 c0 -62 -1 -113 -3
-113 -8 0 -186 139 -238 184 l-50 45 145 -2 145 -2 1 -112z m3379 80 c-33 -29
-144 -119 -205 -166 -8 -7 -34 -24 -58 -40 l-42 -27 0 134 0 135 172 -1 172
-1 -39 -34z m518 -8 c-41 -47 -226 -231 -283 -280 -365 -317 -815 -552 -1280
-670 -36 -10 -74 -19 -85 -21 -11 -2 -54 -11 -95 -19 -216 -43 -352 -54 -650
-51 -153 2 -284 -1 -296 -7 -12 -5 -30 -26 -40 -48 l-19 -39 -128 128 -129
129 164 59 c89 32 167 59 172 59 5 0 11 -11 13 -25 5 -36 30 -69 61 -82 32
-13 385 -17 517 -5 94 7 118 11 225 28 36 6 79 13 95 16 17 2 82 18 145 33
505 127 973 391 1345 757 l80 79 113 1 112 2 -37 -44z"/>
<path d="M2902 4130 c-17 -11 -36 -28 -41 -39 -6 -11 -11 -74 -11 -139 0 -118
0 -120 29 -151 54 -58 149 -33 169 44 12 46 6 223 -8 250 -24 46 -92 63 -138
35z"/>
<path d="M3952 4135 c-54 -23 -62 -46 -62 -183 0 -123 0 -124 29 -153 63 -62
169 -21 172 68 1 21 1 78 1 127 0 85 -1 90 -29 118 -34 34 -68 41 -111 23z"/>
<path d="M3179 3592 c-32 -28 -34 -34 -32 -89 2 -77 33 -145 94 -204 196 -191
550 -60 553 204 1 54 -2 61 -32 88 -36 32 -69 36 -112 14 -34 -17 -50 -43 -56
-88 -9 -74 -87 -121 -163 -99 -47 15 -76 51 -85 107 -8 52 -42 85 -93 92 -35
5 -45 1 -74 -25z"/>
<path d="M5312 3920 c-40 -24 -49 -58 -47 -169 2 -92 3 -95 34 -123 53 -47
128 -34 160 29 6 12 11 65 11 117 0 90 -2 97 -27 126 -35 38 -88 46 -131 20z"/>
<path d="M6134 3927 c-50 -23 -62 -73 -55 -240 2 -45 50 -87 101 -87 61 0 99
41 101 107 5 151 -6 194 -55 217 -34 16 -62 17 -92 3z"/>
<path d="M770 3925 c-43 -23 -57 -64 -55 -162 2 -95 11 -124 51 -149 37 -25
102 -13 132 23 21 26 23 36 20 135 -3 101 -5 109 -29 134 -30 30 -83 38 -119
19z"/>
<path d="M1600 3933 c-8 -3 -27 -17 -42 -31 -27 -25 -28 -29 -28 -133 0 -104
1 -108 29 -138 63 -67 170 -24 172 71 5 165 -7 208 -62 227 -34 12 -46 12 -69
4z"/>
</g>
</svg>
