<svg width="34" height="34" viewBox="0 0 34 34" fill="none" xmlns="http://www.w3.org/2000/svg">
<path d="M17 8.49999C18.5648 8.49999 19.8333 7.23147 19.8333 5.66666C19.8333 4.10185 18.5648 2.83333 17 2.83333C15.4352 2.83333 14.1667 4.10185 14.1667 5.66666C14.1667 7.23147 15.4352 8.49999 17 8.49999Z" fill="white"/>
<path d="M22.3803 11.554C21.8394 11.008 20.9102 10 19.1073 10H15.5846C13.9533 9.99129 12.3768 9.40496 11.1299 8.34322C9.88291 7.28148 9.04462 5.81167 8.76113 4.19C8.71222 3.8607 8.54841 3.55985 8.29922 3.34167C8.05002 3.12349 7.73184 3.00233 7.40198 3C6.55598 3 5.89028 3.756 6.0151 4.596C6.31713 6.4074 7.11482 8.09748 8.31811 9.47542C9.52139 10.8534 11.0823 11.8643 12.8247 12.394V29.6C12.8247 30.37 13.4488 31 14.2116 31C14.9744 31 15.5985 30.37 15.5985 29.6V22.6H18.3722V29.6C18.3722 30.37 18.9963 31 19.7591 31C20.5219 31 21.146 30.37 21.146 29.6V14.27L25.6395 18.806C25.7679 18.9356 25.9203 19.0384 26.0881 19.1086C26.2559 19.1787 26.4357 19.2148 26.6172 19.2148C26.7988 19.2148 26.9786 19.1787 27.1464 19.1086C27.3142 19.0384 27.4666 18.9356 27.595 18.806C27.7234 18.6764 27.8253 18.5225 27.8947 18.3532C27.9642 18.1838 28 18.0023 28 17.819C28 17.6357 27.9642 17.4542 27.8947 17.2848C27.8253 17.1155 27.7234 16.9616 27.595 16.832L22.3803 11.554Z" fill="white"/>
</svg>
