<svg width="128" height="156" viewBox="0 0 128 156" fill="none" xmlns="http://www.w3.org/2000/svg">
<path d="M90.3694 47.1591C91.1543 47.1591 91.7903 46.5231 91.7903 45.7382V43.8523C91.7903 43.0674 91.1543 42.4314 90.3694 42.4314C89.5845 42.4314 88.9485 43.0674 88.9485 43.8523V45.7382C88.9485 46.5229 89.5847 47.1591 90.3694 47.1591Z" fill="#316993"/>
<path d="M101.635 47.1591C102.419 47.1591 103.055 46.5231 103.055 45.7382V43.8523C103.055 43.0674 102.419 42.4314 101.635 42.4314C100.85 42.4314 100.214 43.0674 100.214 43.8523V45.7382C100.214 46.5229 100.85 47.1591 101.635 47.1591Z" fill="#316993"/>
<path d="M27.3299 47.1591C28.1148 47.1591 28.7508 46.5231 28.7508 45.7382V43.8523C28.7508 43.0674 28.1148 42.4314 27.3299 42.4314C26.545 42.4314 25.909 43.0674 25.909 43.8523V45.7382C25.909 46.5229 26.5451 47.1591 27.3299 47.1591Z" fill="#316993"/>
<path d="M38.5949 47.1591C39.3798 47.1591 40.0158 46.5231 40.0158 45.7382V43.8523C40.0158 43.0674 39.3798 42.4314 38.5949 42.4314C37.81 42.4314 37.174 43.0674 37.174 43.8523V45.7382C37.174 46.5229 37.8102 47.1591 38.5949 47.1591Z" fill="#316993"/>
<path d="M56.8978 44.8017C57.6827 44.8017 58.3187 44.1657 58.3187 43.3808V40.9692C58.3187 40.1843 57.6827 39.5483 56.8978 39.5483C56.1129 39.5483 55.4769 40.1843 55.4769 40.9692V43.3808C55.4769 44.1655 56.1129 44.8017 56.8978 44.8017Z" fill="#316993"/>
<path d="M71.3025 44.8017C72.0874 44.8017 72.7234 44.1657 72.7234 43.3808V40.9692C72.7234 40.1843 72.0874 39.5483 71.3025 39.5483C70.5176 39.5483 69.8816 40.1843 69.8816 40.9692V43.3808C69.8816 44.1655 70.5176 44.8017 71.3025 44.8017Z" fill="#316993"/>
<path d="M64.1001 52.5804C66.6115 52.5804 68.6547 50.6448 68.6547 48.2658C68.6547 47.4809 68.0187 46.8449 67.2338 46.8449C66.4489 46.8449 65.8129 47.4809 65.8129 48.2658C65.8129 49.078 65.0445 49.7386 64.1001 49.7386C63.1556 49.7386 62.3872 49.078 62.3872 48.2658C62.3872 47.4809 61.7512 46.8449 60.9663 46.8449C60.1814 46.8449 59.5454 47.4809 59.5454 48.2658C59.5454 50.6448 61.5887 52.5804 64.1001 52.5804Z" fill="#316993"/>
<path d="M109.07 60.4757C110.11 56.5315 110.624 52.4584 110.596 48.3363C110.821 48.1785 111.037 48.0034 111.239 47.8091C112.298 46.7923 112.881 45.4242 112.881 43.9573C112.881 42.6622 112.406 41.4669 111.623 40.5367C111.68 40.3827 111.713 40.2169 111.713 40.043V32.9681C111.713 27.7985 107.801 23.5276 102.782 22.9553C101.117 20.4854 99.2093 18.164 97.0962 16.0508C93.2266 12.1815 88.7794 9.06723 83.8776 6.79474C81.6408 5.75805 79.0146 7.0092 78.3799 9.37717L78.3717 9.40748C77.871 11.2757 78.7884 13.2284 80.5531 14.0504L80.5529 14.0502C85.0877 16.163 89.202 19.1908 92.5989 22.8878C90.3107 22.8878 88.599 23.6799 87.3399 25.2389C85.5787 25.4303 83.9873 26.2086 82.7635 27.371V27.2871C82.7625 23.3673 80.9904 19.7272 77.9006 17.2993C74.3381 14.5009 70.9118 14.5422 67.8903 14.5796C67.5388 14.5839 67.187 14.5883 66.835 14.5883C65.7888 14.5883 64.8315 14.977 64.0999 15.6178C63.3686 14.977 62.4113 14.5883 61.3647 14.5883C57.6365 14.5883 54.1905 14.2421 50.2988 17.2999C47.3532 19.6141 45.6089 23.0314 45.4516 26.7423C44.3564 25.9312 43.048 25.3935 41.6286 25.2384C40.4137 23.7243 38.7196 22.888 36.3967 22.888C42.7261 15.9887 51.3595 11.6383 60.6533 10.7005C60.519 12.1777 62.0792 13.2149 63.3866 12.5327L70.858 8.64645C72.076 8.01406 72.2257 6.32679 71.1307 5.49073L64.4314 0.384021C64.1014 0.132807 63.7092 0 63.297 0C62.3164 0 61.5123 0.736404 61.4265 1.71531L61.3456 2.65632C58.8001 2.82683 56.2705 3.20687 53.809 3.78906C53.0453 3.96961 52.5726 4.73519 52.7531 5.49869C52.9337 6.26237 53.6991 6.73411 54.4628 6.55451C57.1511 5.91889 59.9268 5.54018 62.7121 5.42878C63.4273 5.40017 64.0097 4.84394 64.0711 4.13065L64.1071 3.71025L68.1966 6.82732L63.6327 9.20136C63.6617 8.36284 62.9616 7.68498 62.1316 7.73386C50.6316 8.39031 39.9247 13.9023 32.6448 22.8878H29.7424C31.0111 21.1826 32.4074 19.5658 33.913 18.0606C38.0893 13.8841 42.9472 10.6649 48.3514 8.49243C49.0796 8.19972 49.4326 7.37219 49.1399 6.64412C48.847 5.91567 48.0193 5.56348 47.2914 5.85562C41.5296 8.17206 36.3524 11.6021 31.9033 16.0508C29.7918 18.1625 27.8848 20.482 26.2206 22.9504C21.1831 23.5051 17.2508 27.7852 17.2508 32.9681V40.043C17.2508 40.2169 17.2835 40.3827 17.3406 40.5367C16.5577 41.4669 16.0832 42.6622 16.0832 43.9575C16.0832 45.7817 17.0033 47.3942 18.4032 48.3577C18.3776 52.466 18.8888 56.53 19.9294 60.4761C17.6306 61.5094 16.0248 63.8194 16.0248 66.4988V75.3817C16.0248 76.1666 16.6608 76.8026 17.4457 76.8026H27.9956C31.5314 81.373 35.8105 85.1946 40.7282 88.1645C42.9507 89.5069 45.9304 88.4165 46.642 85.7645C46.9246 84.7102 46.748 83.6089 46.214 82.7067H48.5264C49.3113 82.7067 49.9473 82.0707 49.9473 81.2858C49.9473 80.5009 49.3113 79.8649 48.5264 79.8649H45.6799V75.3815V69.927C45.6799 68.0214 46.7352 66.2239 48.4832 65.3132C49.8185 64.616 50.8336 64.7248 52.3468 64.7248L59.2601 69.8775C59.4962 70.0535 59.7942 70.1549 60.0903 70.1587L60.6458 72.3357L59.1667 79.8647H55.1571C54.3722 79.8647 53.7362 80.5007 53.7362 81.2856C53.7362 82.0705 54.3722 82.7065 55.1571 82.7065H60.3356H67.8632H81.6798C76.0036 85.5873 69.6582 87.0094 63.1462 86.7663L63.1589 86.7074C63.3051 86.0392 63.0759 85.3445 62.5609 84.8943C62.046 84.4442 61.3267 84.3104 60.6838 84.545L52.7713 87.4343C51.48 87.9059 51.1191 89.5613 52.095 90.5277L58.0779 96.4561C59.1265 97.4954 60.9142 96.9682 61.2302 95.5251L61.4227 94.6451C62.4558 94.7139 63.4859 94.748 64.5133 94.748C76.7019 94.7474 88.3955 89.9442 97.096 81.2438C98.4864 79.8532 99.7989 78.3612 101.006 76.8024H111.553C112.338 76.8024 112.974 76.1664 112.974 75.3815V66.4986C112.975 63.819 111.369 61.5088 109.07 60.4757ZM81.7535 11.4744C81.7533 11.4742 81.7533 11.4742 81.7535 11.4744C81.2418 11.2359 80.9741 10.6761 81.1158 10.1475L81.1239 10.117C81.3037 9.44746 82.0452 9.07708 82.6828 9.373C87.2808 11.5047 91.4542 14.4276 95.087 18.0604C96.5926 19.5658 97.9889 21.1824 99.2578 22.8876H96.3567C92.4258 18.0388 87.3901 14.1008 81.7535 11.4744ZM88.7824 29.1943C88.7824 27.2924 90.3312 25.7298 92.2469 25.7298C105.097 25.7298 100.566 25.7279 101.976 25.7385C105.808 25.9179 108.872 29.0919 108.872 32.9683V38.6223C104.54 38.6223 115.438 38.6223 93.9022 38.6223C91.2904 38.6223 89.1166 36.6518 88.8188 34.1042C88.8182 34.0989 88.8174 34.0938 88.8169 34.0885C88.7655 33.6433 88.7824 33.6764 88.7824 29.1943ZM83.1325 33.0914C83.1325 31.1095 84.2946 29.3775 85.9732 28.5502C85.9516 28.762 85.9406 28.9769 85.9406 29.1943C85.9406 33.8869 85.9385 33.5777 85.9457 33.7863C85.1129 34.8099 84.4348 35.9692 83.9549 37.1756C83.709 36.8562 83.4337 36.5607 83.1325 36.2932V33.0914ZM85.2866 41.2989C86.3938 40.7142 85.6939 39.9284 86.9636 37.4117C88.3578 39.8854 91.0113 41.4639 93.902 41.4639H107.598C108.936 41.4952 110.039 42.608 110.039 43.9573C110.039 45.4081 108.823 46.5123 107.439 46.4518C106.779 46.427 106.116 46.851 105.967 47.7047C105.157 52.3611 101.087 56.0734 96.0017 56.0734C91.1511 56.0734 86.8575 52.6272 86.023 47.6376C85.9082 46.9507 85.3133 46.4511 84.6222 46.4511C84.6038 46.4511 84.5854 46.4514 84.5669 46.4522C84.0099 46.4723 83.4652 46.3118 83.0268 46.0023C84.4113 44.829 85.2353 43.1224 85.2866 41.2989ZM107.654 51.6489C107.463 54.4447 107.006 57.2039 106.285 59.8979H105.186L104.085 59.3002C104.431 58.0105 104.715 56.6921 104.934 55.3629C106.045 54.3084 106.971 53.055 107.654 51.6489ZM95.6086 69.771H96.395L97.218 73.9604H94.7856L95.6086 69.771ZM95.1232 65.2823L96.0021 64.3646L96.8809 65.2823L96.4607 66.9292H95.5434L95.1232 65.2823ZM96.0021 60.6028C94.2301 59.4216 94.6929 59.73 92.9168 58.5461C93.9429 58.7949 94.991 58.9152 96.0021 58.9152C96.9976 58.9152 98.0468 58.7983 99.0871 58.5461L96.0021 60.6028ZM85.4073 73.9606V69.927C85.4073 67.756 84.5295 65.5981 82.8332 64.0293C83.5368 63.2243 84.5657 62.7397 85.6651 62.7397H86.7079L92.0321 66.7082C92.0332 66.7091 92.0345 66.7097 92.0359 66.7104C92.2119 66.8408 92.4254 66.9292 92.6199 66.9654L92.9837 68.3911L91.8896 73.9604H85.4073V73.9606ZM90.1999 76.8024C88.6899 78.1843 87.0877 79.4337 85.4073 80.5424V76.8024H90.1999ZM92.7236 63.679L89.8094 61.5069L91.1458 60.7807L93.8029 62.5521L92.7236 63.679ZM83.4519 49.2023C84.3642 52.7638 86.7077 55.6716 89.7999 57.349V58.2781L86.8185 59.8979H85.6653C83.5893 59.8979 81.659 60.8821 80.4258 62.4902C79.4812 62.0997 78.4473 61.883 77.3633 61.883H75.7429L71.635 59.6512V57.9719C75.7825 55.7896 78.7461 51.9251 79.825 47.4622C80.0022 47.4353 80.1765 47.4002 80.3485 47.3593C81.1357 48.3193 82.2277 48.97 83.4519 49.2023ZM48.2783 27.2903C48.2783 24.247 49.6548 21.4199 52.0548 19.5345C55.1111 17.1334 57.7808 17.4303 61.3653 17.4303C62.0898 17.4303 62.6793 18.0196 62.6793 18.7445C62.6793 19.5294 63.3155 20.1654 64.1004 20.1654C64.8853 20.1654 65.5215 19.5294 65.5215 18.7445C65.5215 18.0198 66.1109 17.4303 66.8356 17.4303C67.1993 17.4303 67.5625 17.4259 67.9257 17.4214C70.848 17.3859 73.3713 17.355 76.146 19.5345C78.5453 21.4196 79.9217 24.2456 79.9224 27.2877L79.9226 34.6775C78.6069 34.6775 71.706 34.6775 70.4138 34.6775C67.7449 34.6775 65.5219 32.5121 65.5219 29.7858H65.5215C65.5215 29.0005 64.8852 28.3647 64.1006 28.3647C63.3157 28.3647 62.6797 29.0009 62.6797 29.7856C62.6797 32.4831 60.4853 34.6775 57.7879 34.6775C57.0556 34.6775 49.8295 34.6775 48.6744 34.6775C48.6744 33.0366 48.7523 32.071 48.2788 30.638V27.2903H48.2783ZM49.1725 37.5191H57.7871C60.3544 37.5191 62.6761 36.2562 64.1001 34.248C65.5378 36.2755 67.8685 37.5191 70.4128 37.5191H70.413H79.0276C79.6831 37.5498 80.3256 37.7559 80.9008 38.1549C83.8852 40.2285 82.2163 44.8367 78.7101 44.689C77.9919 44.6649 77.3686 45.1677 77.2504 45.8744C76.1711 52.3277 70.6244 56.992 64.1001 56.992C57.5804 56.992 52.0302 52.3347 50.9497 45.8744C50.8336 45.1802 50.2215 44.6617 49.49 44.689C47.5318 44.7716 45.9194 43.2643 45.7686 41.3749C45.6155 39.3598 47.1584 37.6135 49.1725 37.5191ZM64.1001 62.864L59.4071 59.7353V59.1406C60.9118 59.5984 62.5314 59.8337 64.1001 59.8337C65.667 59.8337 67.2855 59.5991 68.7928 59.1406V59.7353L64.1001 62.864ZM65.6619 68.2567L64.9943 70.8737H63.206L62.5384 68.2567C63.9462 66.7868 63.6315 67.1153 64.1002 66.6259C64.569 67.1155 64.2543 66.7868 65.6619 68.2567ZM20.0928 32.9683C20.0928 29.0797 23.1752 25.899 27.0247 25.7376C28.6863 25.7234 23.2557 25.7298 36.7176 25.7298C37.9211 25.7298 39.0206 26.3414 39.6593 27.3654C39.9152 27.7755 40.3618 28.0273 40.8451 28.0341C42.9046 28.0631 44.6766 29.3434 45.4363 31.1398V35.9891C44.5443 36.6698 43.8386 37.5782 43.4031 38.6285C42.1688 38.6177 41.3121 38.462 40.5374 37.4886C40.0075 36.8231 39.0595 36.7937 38.4773 37.3154C37.5372 38.1581 36.3243 38.6221 35.062 38.6221C34.3847 38.6221 20.7365 38.6221 20.0926 38.6221V32.9683H20.0928ZM18.9253 43.9573C18.9253 42.7567 19.7968 41.7405 20.9406 41.513C21.2962 41.4429 20.4669 41.4639 35.0622 41.4639C36.5989 41.4639 38.0664 41.0174 39.2934 40.2463C40.3576 41.0924 41.5767 41.4141 42.9243 41.4667C43.0336 43.4196 44.0175 45.1425 45.4903 46.2485C45.151 46.3959 44.7734 46.4662 44.3969 46.452C43.6842 46.4211 43.0588 46.9321 42.9408 47.6374C42.1019 52.6545 37.7793 56.0732 32.9623 56.0732C27.9776 56.0732 23.7844 52.4402 22.9836 47.6372C22.8677 46.9436 22.2682 46.4509 21.5828 46.4509C19.8931 46.4511 18.9253 45.2338 18.9253 43.9573ZM32.569 69.771H33.3554L34.1784 73.9604H31.746L32.569 69.771ZM32.0836 65.2823L32.9623 64.3648L33.8412 65.2825L33.421 66.9294H32.5036L32.0836 65.2823ZM32.9625 60.6028L29.8774 58.5461C30.8433 58.7801 31.89 58.9152 32.9625 58.9152C33.9675 58.9152 35.0205 58.7951 36.0474 58.5463L32.9625 60.6028ZM37.8186 60.7807L39.155 61.5069L36.2408 63.679L35.1615 62.5521L37.8186 60.7807ZM24.9145 59.2806L23.7786 59.8979H22.7148C22.0023 57.2345 21.547 54.504 21.3524 51.7383C22.0398 53.1263 22.9658 54.3624 24.072 55.4031C24.289 56.7041 24.5709 58.0024 24.9145 59.2806ZM28.8498 73.9606C27.6379 73.9606 20.0892 73.9606 18.867 73.9606V66.4986C18.867 64.6179 20.2568 63.06 22.0621 62.7867C22.1301 62.7764 22.1981 62.7645 22.266 62.7579C22.5128 62.7344 22.5322 62.7397 23.6681 62.7397L28.9925 66.7082C28.9936 66.7091 28.995 66.7097 28.9961 66.7104C29.1757 66.8434 29.3926 66.9306 29.5802 66.9654L29.9439 68.3911L28.8498 73.9606ZM29.684 63.679L26.7698 61.5069L28.1062 60.7807L30.7633 62.5521L29.684 63.679ZM43.8973 85.0283C43.6831 85.8274 42.8277 86.1119 42.1974 85.7317C38.2818 83.3671 34.6827 80.312 31.661 76.8024H34.7426C37.3006 79.5048 40.2051 81.8445 43.3845 83.7631V83.7633C43.8163 84.0238 44.0271 84.544 43.8973 85.0283ZM38.8033 76.8024H42.8381V80.0212C41.4225 79.0406 40.0759 77.9649 38.8033 76.8024ZM42.8383 69.927V73.9606H37.0746L35.9807 68.3924L36.3448 66.9656C36.5343 66.9302 36.7508 66.8423 36.9287 66.7106C36.9298 66.7097 36.9312 66.7093 36.9323 66.7083L42.2567 62.7399H43.3347C44.2632 62.7399 45.1413 63.0822 45.8173 63.6763C43.9258 65.2026 42.8383 67.5033 42.8383 69.927ZM50.8823 61.883C50.0182 61.883 49.1861 62.0215 48.4054 62.275C47.1647 60.7855 45.316 59.8981 43.3347 59.8981H42.146L39.1644 58.2782V57.3494C42.2576 55.6714 44.6015 52.7625 45.5132 49.1995C46.623 48.9833 47.6387 48.4165 48.4088 47.5895C49.5207 52.0289 52.482 55.8233 56.5655 57.9719V59.6512L52.4576 61.883H50.8823ZM59.952 66.8485L55.4487 63.492L57.9114 62.1539L61.9011 64.8136L59.952 66.8485ZM62.0631 79.8647L63.271 73.7156H64.9283L66.1363 79.8647H62.0631ZM70.2887 62.1537L72.7516 63.4918L68.2483 66.8483L66.2992 64.8134L70.2887 62.1537ZM69.0325 79.8647L67.5536 72.3372L68.1095 70.1587C68.4154 70.1547 68.7132 70.0463 68.9396 69.8775L75.853 64.7248H77.3629C78.4189 64.7248 79.4018 65.0419 80.2231 65.5847C81.6881 66.5518 82.5653 68.1836 82.5653 69.927V79.8647H69.0325ZM95.0868 79.2342C86.0069 88.3143 73.4528 92.8699 60.6533 91.7353C60.6177 91.7321 60.5836 91.7247 60.5493 91.7188C59.7989 91.5856 59.0773 92.0699 58.9143 92.8144L58.83 93.2003L55.1776 89.581L60.0081 87.8172C59.8463 88.6485 60.4455 89.4374 61.2907 89.5043C73.6915 90.487 85.6695 85.8634 94.2547 76.8022H97.3411C96.6193 77.6423 95.8658 78.455 95.0868 79.2342ZM99.7585 61.5139L100.858 60.7807L102.195 61.5067L99.2805 63.6788L98.2012 62.5521L99.7585 61.5139ZM110.133 73.9606H100.304H100.114L99.0202 68.3924L99.3844 66.9656C99.5727 66.9304 99.7898 66.843 99.9685 66.7104C99.9696 66.7095 99.9709 66.7091 99.9721 66.7082L105.296 62.7397C106.582 62.7397 106.549 62.7277 106.938 62.7867C108.743 63.06 110.133 64.6179 110.133 66.4986V73.9606Z" fill="#316993"/>
<path d="M7.41789 130.3H0.457891V127H18.2779V130.3H11.3179V148H7.41789V130.3ZM30.6318 148.3C28.5118 148.3 26.5918 147.84 24.8718 146.92C23.1718 145.98 21.8318 144.69 20.8518 143.05C19.8918 141.41 19.4118 139.56 19.4118 137.5C19.4118 135.44 19.9018 133.59 20.8818 131.95C21.8618 130.31 23.2018 129.03 24.9018 128.11C26.6218 127.17 28.5418 126.7 30.6618 126.7C32.3818 126.7 33.9518 127 35.3718 127.6C36.7918 128.2 37.9918 129.07 38.9718 130.21L36.4518 132.58C34.9318 130.94 33.0618 130.12 30.8418 130.12C29.4018 130.12 28.1118 130.44 26.9718 131.08C25.8318 131.7 24.9418 132.57 24.3018 133.69C23.6618 134.81 23.3418 136.08 23.3418 137.5C23.3418 138.92 23.6618 140.19 24.3018 141.31C24.9418 142.43 25.8318 143.31 26.9718 143.95C28.1118 144.57 29.4018 144.88 30.8418 144.88C33.0618 144.88 34.9318 144.05 36.4518 142.39L38.9718 144.79C37.9918 145.93 36.7818 146.8 35.3418 147.4C33.9218 148 32.3518 148.3 30.6318 148.3ZM61.3687 127V148H57.4687V139H46.6087V148H42.7087V127H46.6087V135.67H57.4687V127H61.3687ZM66.9958 127H70.8958V148H66.9958V127ZM95.8659 148L95.8359 134.08L88.9359 145.6H87.1959L80.2959 134.26V148H76.5759V127H79.7859L88.1259 140.92L96.3159 127H99.5259L99.5559 148H95.8659ZM115.038 148.3C112.898 148.3 110.968 147.84 109.248 146.92C107.528 145.98 106.178 144.69 105.198 143.05C104.218 141.39 103.728 139.54 103.728 137.5C103.728 135.46 104.218 133.62 105.198 131.98C106.178 130.32 107.528 129.03 109.248 128.11C110.968 127.17 112.898 126.7 115.038 126.7C117.178 126.7 119.108 127.17 120.828 128.11C122.548 129.03 123.898 130.31 124.878 131.95C125.858 133.59 126.348 135.44 126.348 137.5C126.348 139.56 125.858 141.41 124.878 143.05C123.898 144.69 122.548 145.98 120.828 146.92C119.108 147.84 117.178 148.3 115.038 148.3ZM115.038 144.88C116.438 144.88 117.698 144.57 118.818 143.95C119.938 143.31 120.818 142.43 121.458 141.31C122.098 140.17 122.418 138.9 122.418 137.5C122.418 136.1 122.098 134.84 121.458 133.72C120.818 132.58 119.938 131.7 118.818 131.08C117.698 130.44 116.438 130.12 115.038 130.12C113.638 130.12 112.378 130.44 111.258 131.08C110.138 131.7 109.258 132.58 108.618 133.72C107.978 134.84 107.658 136.1 107.658 137.5C107.658 138.9 107.978 140.17 108.618 141.31C109.258 142.43 110.138 143.31 111.258 143.95C112.378 144.57 113.638 144.88 115.038 144.88Z" fill="#316993"/>
</svg>
