<svg width="41" height="41" viewBox="0 0 41 41" fill="none" xmlns="http://www.w3.org/2000/svg">
<path d="M31.4344 19.9332C31.7662 19.9332 32.035 19.6644 32.035 19.3326V18.5355C32.035 18.2038 31.7662 17.9349 31.4344 17.9349C31.1027 17.9349 30.8339 18.2038 30.8339 18.5355V19.3326C30.8339 19.6643 31.1028 19.9332 31.4344 19.9332Z" fill="white"/>
<path d="M36.196 19.9332C36.5277 19.9332 36.7966 19.6644 36.7966 19.3326V18.5355C36.7966 18.2038 36.5277 17.9349 36.196 17.9349C35.8642 17.9349 35.5954 18.2038 35.5954 18.5355V19.3326C35.5954 19.6643 35.8643 19.9332 36.196 19.9332Z" fill="white"/>
<path d="M4.78888 19.9332C5.12064 19.9332 5.38947 19.6644 5.38947 19.3326V18.5355C5.38947 18.2038 5.12064 17.9349 4.78888 17.9349C4.45712 17.9349 4.18829 18.2038 4.18829 18.5355V19.3326C4.18829 19.6643 4.4572 19.9332 4.78888 19.9332Z" fill="white"/>
<path d="M9.55042 19.9332C9.88218 19.9332 10.151 19.6644 10.151 19.3326V18.5355C10.151 18.2038 9.88218 17.9349 9.55042 17.9349C9.21865 17.9349 8.94983 18.2038 8.94983 18.5355V19.3326C8.94983 19.6643 9.21873 19.9332 9.55042 19.9332Z" fill="white"/>
<path d="M17.2867 18.9368C17.6184 18.9368 17.8873 18.668 17.8873 18.3362V17.3169C17.8873 16.9851 17.6184 16.7163 17.2867 16.7163C16.9549 16.7163 16.6861 16.9851 16.6861 17.3169V18.3362C16.6861 18.6679 16.9549 18.9368 17.2867 18.9368Z" fill="white"/>
<path d="M23.3752 18.9368C23.707 18.9368 23.9758 18.668 23.9758 18.3362V17.3169C23.9758 16.9851 23.707 16.7163 23.3752 16.7163C23.0435 16.7163 22.7747 16.9851 22.7747 17.3169V18.3362C22.7747 18.6679 23.0435 18.9368 23.3752 18.9368Z" fill="white"/>
<path d="M20.3309 22.2247C21.3924 22.2247 22.2561 21.4066 22.2561 20.401C22.2561 20.0693 21.9873 19.8004 21.6555 19.8004C21.3237 19.8004 21.0549 20.0693 21.0549 20.401C21.0549 20.7443 20.7301 21.0236 20.3309 21.0236C19.9317 21.0236 19.6069 20.7443 19.6069 20.401C19.6069 20.0693 19.3381 19.8004 19.0063 19.8004C18.6746 19.8004 18.4058 20.0693 18.4058 20.401C18.4058 21.4066 19.2694 22.2247 20.3309 22.2247Z" fill="white"/>
<path d="M39.3384 25.5619C39.7782 23.8948 39.9953 22.1732 39.9837 20.4308C40.0789 20.3641 40.1699 20.2901 40.2555 20.208C40.7028 19.7782 40.9492 19.1999 40.9492 18.5799C40.9492 18.0325 40.7487 17.5273 40.4178 17.1341C40.442 17.069 40.4558 16.9989 40.4558 16.9254V13.935C40.4558 11.7499 38.8022 9.94466 36.6808 9.70275C35.9772 8.65877 35.1707 7.67757 34.2775 6.78438C32.6419 5.14886 30.7621 3.83254 28.6903 2.872C27.7448 2.43381 26.6347 2.96265 26.3665 3.96355L26.363 3.97636C26.1514 4.76601 26.5391 5.59138 27.285 5.93883L27.285 5.93875C29.2017 6.83179 30.9408 8.11159 32.3766 9.67424C31.4094 9.67424 30.6859 10.009 30.1537 10.668C29.4093 10.7489 28.7366 11.0778 28.2193 11.5692V11.5337C28.2189 9.87692 27.4699 8.33829 26.1639 7.31209C24.6581 6.12926 23.2099 6.14672 21.9327 6.16249C21.7842 6.16433 21.6354 6.16618 21.4867 6.16618C21.0445 6.16618 20.6398 6.3305 20.3306 6.60132C20.0215 6.3305 19.6168 6.16618 19.1745 6.16618C17.5986 6.16618 16.1421 6.01987 14.4971 7.31233C13.2521 8.29049 12.5148 9.73494 12.4483 11.3034C11.9854 10.9606 11.4324 10.7334 10.8324 10.6678C10.3189 10.0278 9.60283 9.67432 8.62099 9.67432C11.2963 6.75811 14.9455 4.91928 18.8738 4.52289C18.817 5.14726 19.4765 5.58569 20.0291 5.29733L23.1871 3.65469C23.7019 3.38738 23.7652 2.67421 23.3024 2.32082L20.4707 0.162318C20.3312 0.0561348 20.1655 0 19.9912 0C19.5767 0 19.2369 0.311264 19.2006 0.725027L19.1664 1.12278C18.0905 1.19485 17.0213 1.35548 15.9808 1.60156C15.658 1.67788 15.4582 2.00147 15.5345 2.32419C15.6109 2.64698 15.9344 2.84638 16.2572 2.77046C17.3935 2.5018 18.5667 2.34172 19.744 2.29464C20.0463 2.28255 20.2925 2.04744 20.3184 1.74594L20.3336 1.56825L22.0622 2.88578L20.1331 3.88923C20.1454 3.53481 19.8495 3.24829 19.4986 3.26895C14.6378 3.54642 10.1122 5.87621 7.03513 9.67424H5.80833C6.34461 8.95345 6.93479 8.27007 7.57117 7.63385C9.33641 5.86853 11.3898 4.50784 13.674 3.58958C13.9818 3.46586 14.131 3.11608 14.0073 2.80834C13.8835 2.50044 13.5336 2.35157 13.226 2.47505C10.7906 3.45417 8.60225 4.90398 6.7217 6.78438C5.82923 7.67693 5.02316 8.65733 4.31976 9.70066C2.19048 9.93513 0.528378 11.7443 0.528378 13.935V16.9254C0.528378 16.9989 0.542232 17.069 0.566335 17.1341C0.235453 17.5273 0.0348569 18.0325 0.0348569 18.58C0.0348569 19.351 0.423796 20.0326 1.01549 20.4399C1.00468 22.1764 1.22073 23.8941 1.6606 25.5621C0.688935 25.9988 0.0101929 26.9752 0.0101929 28.1077V31.8624C0.0101929 32.1941 0.279015 32.463 0.610779 32.463H5.07001C6.56451 34.3948 8.37323 36.0101 10.4518 37.2654C11.3912 37.8328 12.6507 37.3719 12.9515 36.251C13.0709 35.8053 12.9963 35.3398 12.7706 34.9585H13.748C14.0798 34.9585 14.3486 34.6897 14.3486 34.3579C14.3486 34.0262 14.0798 33.7573 13.748 33.7573H12.5448V31.8623V29.5568C12.5448 28.7513 12.9909 27.9915 13.7297 27.6066C14.2941 27.3119 14.7232 27.3579 15.3628 27.3579L18.2849 29.5359C18.3847 29.6102 18.5106 29.6531 18.6358 29.6547L18.8706 30.5749L18.2454 33.7573H16.5506C16.2189 33.7573 15.9501 34.0261 15.9501 34.3578C15.9501 34.6896 16.2189 34.9584 16.5506 34.9584H18.7395H21.9212H27.7613C25.362 36.1761 22.68 36.7772 19.9275 36.6744L19.9328 36.6495C19.9946 36.3671 19.8978 36.0734 19.6801 35.8832C19.4625 35.6929 19.1584 35.6364 18.8867 35.7355L15.5422 36.9568C14.9964 37.1561 14.8439 37.8558 15.2563 38.2643L17.7852 40.7701C18.2284 41.2094 18.9841 40.9865 19.1176 40.3766L19.199 40.0046C19.6357 40.0337 20.071 40.0481 20.5053 40.0481C25.6572 40.0479 30.5999 38.0177 34.2774 34.3401C34.8651 33.7524 35.4199 33.1218 35.9301 32.4629H40.3882C40.72 32.4629 40.9888 32.194 40.9888 31.8623V28.1077C40.989 26.975 40.3102 25.9986 39.3384 25.5619ZM27.7924 4.85001C27.7923 4.84993 27.7923 4.84993 27.7924 4.85001C27.5761 4.74919 27.463 4.51256 27.5229 4.28914L27.5263 4.27625C27.6023 3.99326 27.9157 3.8367 28.1852 3.96179C30.1287 4.86282 31.8927 6.09827 33.4282 7.63377C34.0646 8.27007 34.6548 8.95337 35.1912 9.67416H33.9649C32.3034 7.62464 30.1749 5.96013 27.7924 4.85001ZM30.7634 12.3399C30.7634 11.536 31.418 10.8755 32.2278 10.8755C37.6592 10.8755 35.7442 10.8747 36.34 10.8792C37.9599 10.955 39.2547 12.2966 39.2547 13.935V16.3249C37.4236 16.3249 42.0302 16.3249 32.9274 16.3249C31.8235 16.3249 30.9046 15.492 30.7788 14.4152C30.7785 14.4129 30.7782 14.4108 30.778 14.4085C30.7563 14.2204 30.7634 14.2344 30.7634 12.3399ZM28.3753 13.9871C28.3753 13.1494 28.8665 12.4173 29.576 12.0676C29.5669 12.1571 29.5622 12.2479 29.5622 12.3399C29.5622 14.3233 29.5613 14.1926 29.5644 14.2808C29.2124 14.7135 28.9258 15.2035 28.7229 15.7134C28.619 15.5784 28.5026 15.4535 28.3753 15.3404V13.9871ZM29.2858 17.4562C29.7538 17.2091 29.458 16.8769 29.9946 15.8132C30.5839 16.8588 31.7055 17.526 32.9273 17.526H38.7164C39.2819 17.5392 39.748 18.0096 39.748 18.5799C39.748 19.1931 39.2342 19.6598 38.6492 19.6343C38.3703 19.6238 38.0901 19.803 38.0272 20.1638C37.6845 22.132 35.9643 23.7011 33.8148 23.7011C31.7646 23.7011 29.9498 22.2445 29.5971 20.1355C29.5485 19.8451 29.2971 19.634 29.005 19.634C28.9972 19.634 28.9894 19.6341 28.9816 19.6344C28.7461 19.6429 28.5159 19.5751 28.3306 19.4443C28.9158 18.9483 29.2641 18.227 29.2858 17.4562ZM38.7401 21.831C38.6594 23.0127 38.4662 24.1789 38.1615 25.3177H37.6968L37.2316 25.065C37.3778 24.5199 37.4979 23.9627 37.5905 23.4008C38.06 22.9551 38.4514 22.4253 38.7401 21.831ZM33.6487 29.4909H33.9811L34.3289 31.2616H33.3008L33.6487 29.4909ZM33.4435 27.5936L33.815 27.2057L34.1865 27.5936L34.0089 28.2897H33.6211L33.4435 27.5936ZM33.815 25.6156C33.066 25.1163 33.2617 25.2467 32.5109 24.7463C32.9446 24.8514 33.3876 24.9023 33.815 24.9023C34.2358 24.9023 34.6793 24.8529 35.119 24.7463L33.815 25.6156ZM29.3368 31.2617V29.5568C29.3368 28.6391 28.9658 27.7271 28.2488 27.0639C28.5462 26.7237 28.9811 26.5188 29.4458 26.5188H29.8865L32.137 28.1962C32.1375 28.1966 32.138 28.1969 32.1386 28.1972C32.213 28.2523 32.3032 28.2897 32.3855 28.305L32.5392 28.9076L32.0768 31.2616H29.3368V31.2617ZM31.3625 32.4629C30.7243 33.047 30.0471 33.5751 29.3368 34.0437V32.4629H31.3625ZM32.4293 26.9159L31.1975 25.9978L31.7624 25.6908L32.8855 26.4396L32.4293 26.9159ZM28.5103 20.7969C28.8959 22.3022 29.8865 23.5313 31.1935 24.2403V24.633L29.9333 25.3177H29.4459C28.5684 25.3177 27.7525 25.7337 27.2312 26.4134C26.832 26.2483 26.395 26.1567 25.9368 26.1567H25.2519L23.5155 25.2134V24.5036C25.2686 23.5812 26.5213 21.9477 26.9773 20.0613C27.0522 20.05 27.1258 20.0351 27.1986 20.0178C27.5313 20.4236 27.9928 20.6987 28.5103 20.7969ZM13.6431 11.5351C13.6431 10.2487 14.2249 9.05379 15.2394 8.25686C16.5312 7.24195 17.6597 7.36743 19.1747 7.36743C19.4809 7.36743 19.7302 7.61655 19.7302 7.92293C19.7302 8.25469 19.9991 8.52352 20.3308 8.52352C20.6626 8.52352 20.9315 8.25469 20.9315 7.92293C20.9315 7.61663 21.1806 7.36743 21.4869 7.36743C21.6407 7.36743 21.7942 7.36559 21.9477 7.36366C23.1829 7.34869 24.2494 7.33564 25.4223 8.25686C26.4364 9.05363 27.0181 10.2482 27.0185 11.534L27.0185 14.6575C26.4624 14.6575 23.5456 14.6575 22.9993 14.6575C21.8713 14.6575 20.9316 13.7422 20.9316 12.5899H20.9315C20.9315 12.258 20.6625 11.9892 20.3309 11.9892C19.9991 11.9892 19.7303 12.2581 19.7303 12.5898C19.7303 13.73 18.8028 14.6575 17.6626 14.6575C17.3531 14.6575 14.2988 14.6575 13.8105 14.6575C13.8105 13.9639 13.8434 13.5558 13.6433 12.9501V11.5351H13.6431ZM14.0211 15.8586H17.6623C18.7474 15.8586 19.7288 15.3248 20.3307 14.476C20.9384 15.333 21.9235 15.8586 22.9989 15.8586H22.999H26.6403C26.9173 15.8716 27.1889 15.9587 27.432 16.1273C28.6935 17.0038 27.988 18.9516 26.506 18.8891C26.2025 18.879 25.939 19.0915 25.889 19.3902C25.4328 22.1179 23.0884 24.0894 20.3307 24.0894C17.5749 24.0894 15.229 22.1209 14.7723 19.3902C14.7232 19.0968 14.4645 18.8776 14.1553 18.8891C13.3276 18.9241 12.646 18.287 12.5823 17.4883C12.5176 16.6366 13.1698 15.8985 14.0211 15.8586ZM20.3307 26.5714L18.347 25.249V24.9976C18.983 25.1911 19.6676 25.2905 20.3307 25.2905C20.993 25.2905 21.6771 25.1914 22.3142 24.9976V25.249L20.3307 26.5714ZM20.9908 28.8508L20.7086 29.9569H19.9528L19.6706 28.8508C20.2656 28.2295 20.1326 28.3683 20.3307 28.1615C20.5288 28.3684 20.3958 28.2295 20.9908 28.8508ZM1.72963 13.935C1.72963 12.2914 3.0325 10.947 4.65961 10.8788C5.36197 10.8728 3.06653 10.8755 8.75665 10.8755C9.2653 10.8755 9.73007 11.134 10 11.5668C10.1082 11.7402 10.2969 11.8466 10.5012 11.8495C11.3718 11.8617 12.1207 12.4029 12.4418 13.1622V15.2119C12.0648 15.4996 11.7665 15.8836 11.5824 16.3275C11.0607 16.323 10.6986 16.2571 10.3712 15.8457C10.1472 15.5644 9.74649 15.552 9.50041 15.7725C9.10306 16.1287 8.5904 16.3248 8.05684 16.3248C7.77056 16.3248 2.00174 16.3248 1.72955 16.3248V13.935H1.72963ZM1.23619 18.5799C1.23619 18.0724 1.60455 17.6429 2.08798 17.5467C2.23829 17.5171 1.88778 17.526 8.05692 17.526C8.70644 17.526 9.32672 17.3372 9.84539 17.0113C10.2952 17.3689 10.8105 17.5049 11.3801 17.5272C11.4263 18.3526 11.8421 19.0809 12.4647 19.5484C12.3212 19.6107 12.1616 19.6404 12.0025 19.6344C11.7013 19.6213 11.4369 19.8373 11.3871 20.1354C11.0325 22.256 9.2054 23.701 7.16934 23.701C5.0624 23.701 3.29003 22.1655 2.95154 20.1353C2.90253 19.8422 2.64917 19.6339 2.35944 19.6339C1.64523 19.634 1.23619 19.1195 1.23619 18.5799ZM7.00309 29.4909H7.3355L7.68336 31.2616H6.65524L7.00309 29.4909ZM6.79793 27.5936L7.16934 27.2057L7.54082 27.5936L7.36321 28.2898H6.97547L6.79793 27.5936ZM7.16942 25.6156L5.86543 24.7463C6.27366 24.8452 6.71609 24.9023 7.16942 24.9023C7.59423 24.9023 8.03931 24.8515 8.47333 24.7464L7.16942 25.6156ZM9.22198 25.6908L9.78685 25.9978L8.55509 26.9159L8.09888 26.4396L9.22198 25.6908ZM3.7677 25.0568L3.28755 25.3177H2.83791C2.53674 24.1919 2.34431 23.0378 2.26207 21.8688C2.55259 22.4554 2.94401 22.9779 3.41159 23.4178C3.50328 23.9677 3.62244 24.5165 3.7677 25.0568ZM5.43108 31.2617C4.91882 31.2617 1.72811 31.2617 1.21152 31.2617V28.1077C1.21152 27.3127 1.79898 26.6542 2.56204 26.5387C2.59079 26.5344 2.61954 26.5293 2.64821 26.5265C2.75255 26.5166 2.76072 26.5188 3.24086 26.5188L5.49138 28.1962C5.49186 28.1966 5.49242 28.1969 5.4929 28.1972C5.56882 28.2534 5.66051 28.2902 5.73978 28.305L5.89353 28.9076L5.43108 31.2617ZM5.78367 26.9159L4.5519 25.9978L5.11677 25.6908L6.23987 26.4396L5.78367 26.9159ZM11.7914 35.9398C11.7008 36.2776 11.3392 36.3978 11.0728 36.2371C9.41777 35.2377 7.89653 33.9463 6.61928 32.4629H7.92183C9.00305 33.6051 10.2307 34.5941 11.5746 35.405V35.4051C11.7571 35.5152 11.8462 35.7351 11.7914 35.9398ZM9.63823 32.4629H11.3436V33.8234C10.7453 33.4089 10.1761 32.9542 9.63823 32.4629ZM11.3437 29.5568V31.2617H8.90751L8.44514 28.9081L8.59905 28.3051C8.67913 28.2901 8.77066 28.2529 8.84585 28.1973C8.84633 28.1969 8.84689 28.1967 8.84737 28.1963L11.0979 26.5189H11.5535C11.946 26.5189 12.3172 26.6636 12.6029 26.9147C11.8034 27.5598 11.3437 28.5323 11.3437 29.5568ZM14.7438 26.1567C14.3785 26.1567 14.0268 26.2153 13.6968 26.3224C13.1724 25.6928 12.391 25.3177 11.5535 25.3177H11.0511L9.79085 24.6331V24.2404C11.0983 23.5312 12.089 22.3017 12.4744 20.7956C12.9434 20.7043 13.3727 20.4647 13.6983 20.1151C14.1682 21.9916 15.4199 23.5954 17.146 24.5036V25.2134L15.4096 26.1567H14.7438ZM18.5773 28.2556L16.6739 26.8368L17.7148 26.2712L19.4012 27.3954L18.5773 28.2556ZM19.4697 33.7573L19.9802 31.1582H20.6808L21.1913 33.7573H19.4697ZM22.9465 26.2712L23.9875 26.8367L22.084 28.2555L21.2602 27.3954L22.9465 26.2712ZM22.4155 33.7573L21.7904 30.5755L22.0253 29.6547C22.1547 29.653 22.2806 29.6072 22.3762 29.5359L25.2984 27.3579H25.9366C26.383 27.3579 26.7984 27.4919 27.1455 27.7214C27.7648 28.1302 28.1355 28.8199 28.1355 29.5568V33.7573H22.4155ZM33.4282 33.4908C29.5902 37.3287 24.2839 39.2543 18.8738 38.7747C18.8587 38.7733 18.8443 38.7702 18.8298 38.7677C18.5126 38.7114 18.2076 38.9161 18.1388 39.2308L18.1031 39.394L16.5593 37.8641L18.601 37.1186C18.5327 37.47 18.7859 37.8034 19.1432 37.8317C24.3848 38.2471 29.4476 36.2928 33.0765 32.4628H34.381C34.0759 32.8179 33.7574 33.1614 33.4282 33.4908ZM35.4028 26.0007L35.8676 25.6908L36.4325 25.9977L35.2008 26.9158L34.7446 26.4396L35.4028 26.0007ZM39.7879 31.2617H35.6334H35.5531L35.0907 28.9081L35.2446 28.3051C35.3242 28.2902 35.416 28.2532 35.4915 28.1972C35.492 28.1968 35.4926 28.1966 35.493 28.1962L37.7435 26.5188C38.2869 26.5188 38.2729 26.5138 38.4374 26.5387C39.2005 26.6542 39.7879 27.3127 39.7879 28.1077V31.2617Z" fill="white"/>
</svg>
